<svg xmlns="http://www.w3.org/2000/svg" height="24" viewBox="0 -960 960 960" width="24" stroke="white" fill="white"><path d="M379.784-233.782q-44.305 0-75.154-30.848-30.848-30.849-30.848-75.154v-466.434q0-44.305 30.848-75.153 30.849-30.848 75.154-30.848h346.434q44.305 0 75.153 30.848 30.848 30.848 30.848 75.153v466.434q0 44.305-30.848 75.154-30.848 30.848-75.153 30.848H379.784Zm0-106.002h346.434v-466.434H379.784v466.434ZM193.782-47.781q-44.305 0-75.153-30.848-30.848-30.848-30.848-75.153v-572.436h106.001v572.436h452.436v106.001H193.782Zm186.002-292.003v-466.434 466.434Z"/></svg>