<svg xmlns="http://www.w3.org/2000/svg" height="24" viewBox="0 -960 960 960" width="24" stroke="white" fill="white"><path d="m733.001-90.607-67.871-68.87 63-63H493.001V-320H728.13l-63-64 67.871-67.87 180.914 180.349L733.001-90.607ZM859.218-531.87H753.217v-221.347h-76.043v129.044H282.826v-129.044h-76.043v546.434h206.218v106.001H206.783q-43.726 0-74.863-31.138-31.138-31.137-31.138-74.863v-546.434q0-43.726 31.138-74.863 31.137-31.138 74.863-31.138h145.521q14.391-36.696 49.938-59.761 35.546-23.066 77.758-23.066 42.826 0 78.283 23.066 35.457 23.065 50.413 59.761h144.521q43.726 0 74.863 31.138 31.138 31.137 31.138 74.863v221.347ZM480-761.696q17 0 28.5-11.5t11.5-28.5q0-17-11.5-28.5t-28.5-11.5q-17 0-28.5 11.5t-11.5 28.5q0 17 11.5 28.5t28.5 11.5Z"/></svg>